<svg width="32" height="32" viewBox="0 0 32 32" fill="none" xmlns="http://www.w3.org/2000/svg">
<path d="M16.0001 29.2668H22.6667V26.6001H16.0001C10.2134 26.6001 5.33341 21.7201 5.33341 15.9334C5.33341 10.1468 10.2134 5.26676 16.0001 5.26676C21.7867 5.26676 26.6667 10.1468 26.6667 15.9334V17.8401C26.6667 18.8934 25.7201 19.9334 24.6667 19.9334C23.6134 19.9334 22.6667 18.8934 22.6667 17.8401V15.9334C22.6667 12.2534 19.6801 9.26676 16.0001 9.26676C12.3201 9.26676 9.33342 12.2534 9.33342 15.9334C9.33342 19.6134 12.3201 22.6001 16.0001 22.6001C17.8401 22.6001 19.5201 21.8534 20.7201 20.6401C21.5867 21.8268 23.0801 22.6001 24.6667 22.6001C27.2934 22.6001 29.3334 20.4668 29.3334 17.8401V15.9334C29.3334 8.57343 23.3601 2.6001 16.0001 2.6001C8.64008 2.6001 2.66675 8.57343 2.66675 15.9334C2.66675 23.2934 8.64008 29.2668 16.0001 29.2668ZM16.0001 19.9334C13.7867 19.9334 12.0001 18.1468 12.0001 15.9334C12.0001 13.7201 13.7867 11.9334 16.0001 11.9334C18.2134 11.9334 20.0001 13.7201 20.0001 15.9334C20.0001 18.1468 18.2134 19.9334 16.0001 19.9334Z" fill="#FAF8EB"/>
</svg>
