<svg width="48" height="48" viewBox="0 0 48 48" fill="none" xmlns="http://www.w3.org/2000/svg">
<path d="M30.4966 24L43.073 11.4236C44.867 9.62964 44.867 6.72104 43.073 4.92704C41.2789 3.13304 38.3705 3.13304 36.5764 4.92704L24 17.5034L11.4236 4.92704C9.62964 3.13304 6.72104 3.13304 4.92704 4.92704C3.13304 6.72104 3.13304 9.62964 4.92704 11.4236L17.5034 24L4.92704 36.5764C3.13304 38.3704 3.13304 41.279 4.92704 43.073C5.82404 43.9699 6.99967 44.4185 8.17529 44.4185C9.35092 44.4185 10.5266 43.97 11.4235 43.073L24 30.4966L36.5764 43.073C37.4734 43.9699 38.649 44.4185 39.8246 44.4185C41.0003 44.4185 42.1759 43.97 43.0729 43.073C44.8669 41.279 44.8669 38.3704 43.0729 36.5764L30.4966 24Z" fill="#FAF8EB"/>
</svg>
