<svg width="9" height="8" viewBox="0 0 9 8" fill="none" xmlns="http://www.w3.org/2000/svg">
<path fill-rule="evenodd" clip-rule="evenodd" d="M4.17585 7.42415C4.06337 7.31163 4.00018 7.15905 4.00018 6.99995C4.00018 6.84085 4.06337 6.68827 4.17585 6.57575L6.75165 3.99995L4.17585 1.42415C4.11854 1.3688 4.07283 1.3026 4.04139 1.22939C4.00994 1.15619 3.99339 1.07746 3.9927 0.997792C3.99201 0.918124 4.00719 0.839116 4.03736 0.765379C4.06752 0.691641 4.11208 0.62465 4.16841 0.568314C4.22475 0.511978 4.29174 0.467426 4.36548 0.437258C4.43921 0.407089 4.51822 0.391908 4.59789 0.392601C4.67756 0.393293 4.75629 0.409845 4.82949 0.44129C4.90269 0.472736 4.9689 0.518445 5.02425 0.575751L8.02425 3.57575C8.13673 3.68827 8.19992 3.84085 8.19992 3.99995C8.19992 4.15905 8.13673 4.31163 8.02425 4.42415L5.02425 7.42415C4.91173 7.53663 4.75915 7.59982 4.60005 7.59982C4.44095 7.59982 4.28837 7.53663 4.17585 7.42415Z" fill="#0E1712"/>
<path fill-rule="evenodd" clip-rule="evenodd" d="M0.575818 7.42418C0.463336 7.31166 0.400146 7.15907 0.400146 6.99998C0.400146 6.84088 0.463336 6.68829 0.575818 6.57578L3.15162 3.99998L0.575818 1.42418C0.466524 1.31101 0.406047 1.15945 0.407414 1.00214C0.408781 0.844817 0.471882 0.69433 0.583127 0.583085C0.694372 0.47184 0.844859 0.408738 1.00218 0.407371C1.1595 0.406004 1.31106 0.466481 1.42422 0.575776L4.42422 3.57578C4.5367 3.68829 4.59989 3.84088 4.59989 3.99998C4.59989 4.15907 4.5367 4.31166 4.42422 4.42418L1.42422 7.42418C1.3117 7.53666 1.15912 7.59985 1.00002 7.59985C0.84092 7.59985 0.688335 7.53666 0.575818 7.42418Z" fill="#0E1712"/>
</svg>
