<svg width="32" height="32" viewBox="0 0 32 32" fill="none" xmlns="http://www.w3.org/2000/svg">
<path d="M16 2.57141C22.1543 2.57141 27.1429 7.55998 27.1429 13.7143C27.1429 18.4228 23.8343 23.5543 17.3029 29.1634C16.9397 29.4754 16.4767 29.6467 15.9979 29.6463C15.5191 29.6459 15.0564 29.4737 14.6937 29.1611L14.2617 28.7863C8.01946 23.3234 4.85718 18.3177 4.85718 13.7143C4.85718 7.55998 9.84575 2.57141 16 2.57141ZM16 4.2857C13.4994 4.2857 11.1012 5.27906 9.33303 7.04726C7.56483 8.81546 6.57146 11.2137 6.57146 13.7143C6.57146 17.7166 9.48346 22.328 15.3875 27.4937L15.8137 27.8628C15.8656 27.9074 15.9317 27.9319 16 27.9319C16.0684 27.9319 16.1345 27.9074 16.1863 27.8628C22.376 22.5463 25.4286 17.8114 25.4286 13.7143C25.4286 12.4761 25.1847 11.25 24.7109 10.1061C24.2371 8.96218 23.5426 7.92279 22.667 7.04726C21.7915 6.17174 20.7521 5.47723 19.6082 5.0034C18.4643 4.52957 17.2382 4.2857 16 4.2857ZM16 9.42855C17.1367 9.42855 18.2268 9.88008 19.0305 10.6838C19.8342 11.4875 20.2857 12.5776 20.2857 13.7143C20.2857 14.8509 19.8342 15.941 19.0305 16.7447C18.2268 17.5485 17.1367 18 16 18C14.8634 18 13.7733 17.5485 12.9696 16.7447C12.1658 15.941 11.7143 14.8509 11.7143 13.7143C11.7143 12.5776 12.1658 11.4875 12.9696 10.6838C13.7733 9.88008 14.8634 9.42855 16 9.42855ZM16 11.1428C15.318 11.1428 14.664 11.4138 14.1818 11.896C13.6995 12.3782 13.4286 13.0323 13.4286 13.7143C13.4286 14.3963 13.6995 15.0503 14.1818 15.5325C14.664 16.0148 15.318 16.2857 16 16.2857C16.682 16.2857 17.3361 16.0148 17.8183 15.5325C18.3005 15.0503 18.5715 14.3963 18.5715 13.7143C18.5715 13.0323 18.3005 12.3782 17.8183 11.896C17.3361 11.4138 16.682 11.1428 16 11.1428Z" fill="#FAF8EB"/>
</svg>
