<svg width="32" height="32" viewBox="0 0 32 32" fill="none" xmlns="http://www.w3.org/2000/svg">
<path d="M24.6488 31.5023C24.3499 31.5014 24.0519 31.4687 23.76 31.4045C18.2014 30.2546 13.0805 27.5586 8.98662 23.6267C4.9801 19.6862 2.20137 14.669 0.986622 9.18227C0.843388 8.49846 0.878543 7.78929 1.08871 7.12299C1.29887 6.4567 1.67697 5.8557 2.18662 5.37782L5.74218 1.9556C5.92378 1.78386 6.13956 1.65234 6.37544 1.56963C6.61131 1.48692 6.86197 1.45488 7.11107 1.4756C7.36935 1.50255 7.61859 1.58575 7.84126 1.71935C8.06394 1.85296 8.25464 2.03372 8.39995 2.24893L12.8444 8.81782C13.0111 9.07271 13.0915 9.37436 13.0739 9.67839C13.0563 9.98242 12.9416 10.2728 12.7466 10.5067L10.5155 13.1734C11.4041 15.14 12.6625 16.9174 14.2222 18.4089C15.7718 19.9545 17.6034 21.1887 19.6177 22.0445L22.3822 19.8489C22.6144 19.6654 22.8969 19.557 23.1922 19.5379C23.4875 19.5188 23.7817 19.5901 24.0355 19.7423L30.7466 24.08C30.9769 24.2176 31.1731 24.4054 31.3205 24.6295C31.4679 24.8536 31.5627 25.1082 31.5978 25.3741C31.6328 25.64 31.6073 25.9104 31.523 26.1651C31.4387 26.4197 31.2979 26.652 31.1111 26.8445L27.6444 30.2756C27.2506 30.6675 26.7832 30.9776 26.2691 31.1881C25.755 31.3986 25.2044 31.5054 24.6488 31.5023ZM6.96884 3.2356L3.41329 6.65782C3.12658 6.92498 2.91434 7.26216 2.79745 7.63621C2.68056 8.01026 2.66305 8.40829 2.74662 8.79116C3.87615 13.9397 6.47259 18.651 10.2222 22.3556C14.0748 26.0548 18.8938 28.5906 24.1244 29.6712C24.5203 29.7539 24.9306 29.7372 25.3184 29.6224C25.7063 29.5076 26.0595 29.2983 26.3466 29.0134L29.8133 25.5823L23.3333 21.3956L20.3644 23.76C20.2507 23.85 20.1168 23.9108 19.9743 23.9371C19.8317 23.9635 19.6849 23.9546 19.5466 23.9112C17.0815 23.0029 14.8475 21.5611 13.0044 19.6889C11.098 17.9087 9.61829 15.7209 8.67551 13.2889C8.63563 13.1417 8.6343 12.9867 8.67166 12.8388C8.70902 12.6909 8.78382 12.5551 8.88884 12.4445L11.2888 9.57338L6.96884 3.2356Z" fill="#FAF8EB"/>
</svg>
