<svg width="32" height="32" viewBox="0 0 48 48" fill="none" xmlns="http://www.w3.org/2000/svg">
<path d="M47.286 9.87391C45.616 10.6139 43.822 11.1139 41.936 11.3399C43.882 10.1755 45.3379 8.34284 46.032 6.18391C44.2037 7.26989 42.2027 8.0343 40.116 8.44391C38.7128 6.94564 36.8541 5.95256 34.8287 5.61886C32.8032 5.28515 30.7242 5.62949 28.9145 6.59842C27.1048 7.56734 25.6656 9.10663 24.8203 10.9773C23.9751 12.848 23.7711 14.9454 24.24 16.9439C20.5354 16.7579 16.9113 15.795 13.6029 14.1177C10.2945 12.4404 7.37571 10.0862 5.03602 7.20791C4.23602 8.58791 3.77602 10.1879 3.77602 11.8919C3.77513 13.4259 4.15289 14.9364 4.87578 16.2894C5.59867 17.6424 6.64435 18.796 7.92002 19.6479C6.44058 19.6008 4.99377 19.2011 3.70002 18.4819V18.6019C3.69987 20.7534 4.44409 22.8387 5.80639 24.5039C7.16869 26.1691 9.06517 27.3118 11.174 27.7379C9.80159 28.1093 8.3627 28.1641 6.96602 27.8979C7.56102 29.7491 8.72001 31.368 10.2808 32.5278C11.8415 33.6876 13.7259 34.3303 15.67 34.3659C12.3697 36.9567 8.2938 38.3621 4.09802 38.3559C3.35479 38.3561 2.61218 38.3127 1.87402 38.2259C6.13298 40.9643 11.0907 42.4176 16.154 42.4119C33.294 42.4119 42.664 28.2159 42.664 15.9039C42.664 15.5039 42.654 15.0999 42.636 14.6999C44.4586 13.3819 46.0318 11.7497 47.282 9.87991L47.286 9.87391Z" fill="#FAF8EB"/>
</svg>
