<svg width="361" height="248" viewBox="0 0 361 248" fill="none" xmlns="http://www.w3.org/2000/svg">
<mask id="path-1-inside-1" fill="white">
<path fill-rule="evenodd" clip-rule="evenodd" d="M73 35H89.3193C119.695 35 144.319 59.6243 144.319 90V158C144.319 188.376 119.695 213 89.3192 213H72.9999C42.6243 213 18 188.376 18 158V90C18 59.6243 42.6243 35 73 35ZM-17 90C-17 40.2944 23.2944 0 73 0H89.3193C126.292 0 158.058 22.2948 171.906 54.174C185.754 22.2948 217.52 0 254.493 0H270.813C320.518 0 360.812 40.2944 360.812 90V158C360.812 207.706 320.518 248 270.812 248H254.493C217.52 248 185.754 225.705 171.906 193.826C158.058 225.705 126.292 248 89.3192 248H72.9999C23.2943 248 -17 207.706 -17 158V90ZM254.493 35H270.813C301.188 35 325.812 59.6243 325.812 90V158C325.812 188.376 301.188 213 270.812 213H254.493C224.118 213 199.493 188.376 199.493 158V90C199.493 59.6243 224.118 35 254.493 35Z"/>
</mask>
<path d="M171.906 54.174L170.072 54.9709L171.906 59.1938L173.741 54.9709L171.906 54.174ZM171.906 193.826L173.741 193.029L171.906 188.806L170.072 193.029L171.906 193.826ZM89.3193 33H73V37H89.3193V33ZM146.319 90C146.319 58.5197 120.799 33 89.3193 33V37C118.59 37 142.319 60.7289 142.319 90H146.319ZM146.319 158V90H142.319V158H146.319ZM89.3192 215C120.799 215 146.319 189.48 146.319 158H142.319C142.319 187.271 118.59 211 89.3192 211V215ZM72.9999 215H89.3192V211H72.9999V215ZM16 158C16 189.48 41.5197 215 72.9999 215V211C43.7289 211 20 187.271 20 158H16ZM16 90V158H20V90H16ZM73 33C41.5198 33 16 58.5198 16 90H20C20 60.7289 43.7289 37 73 37V33ZM73 -2C22.1898 -2 -19 39.1898 -19 90H-15C-15 41.3989 24.3989 2 73 2V-2ZM89.3193 -2H73V2H89.3193V-2ZM173.741 53.3772C159.587 20.7937 127.117 -2 89.3193 -2V2C125.468 2 156.53 23.796 170.072 54.9709L173.741 53.3772ZM254.493 -2C216.695 -2 184.226 20.7937 170.072 53.3772L173.741 54.9709C187.283 23.796 218.345 2 254.493 2V-2ZM270.813 -2H254.493V2H270.813V-2ZM362.812 90C362.812 39.1898 321.623 -2 270.813 -2V2C319.414 2 358.812 41.3989 358.812 90H362.812ZM362.812 158V90H358.812V158H362.812ZM270.812 250C321.623 250 362.812 208.81 362.812 158H358.812C358.812 206.601 319.414 246 270.812 246V250ZM254.493 250H270.812V246H254.493V250ZM170.072 194.623C184.226 227.206 216.695 250 254.493 250V246C218.345 246 187.283 224.204 173.741 193.029L170.072 194.623ZM89.3192 250C127.117 250 159.587 227.206 173.741 194.623L170.072 193.029C156.53 224.204 125.468 246 89.3192 246V250ZM72.9999 250H89.3192V246H72.9999V250ZM-19 158C-19 208.81 22.1898 250 72.9999 250V246C24.3989 246 -15 206.601 -15 158H-19ZM-19 90V158H-15V90H-19ZM270.813 33H254.493V37H270.813V33ZM327.812 90C327.812 58.5197 302.293 33 270.813 33V37C300.084 37 323.812 60.7289 323.812 90H327.812ZM327.812 158V90H323.812V158H327.812ZM270.812 215C302.293 215 327.812 189.48 327.812 158H323.812C323.812 187.271 300.084 211 270.812 211V215ZM254.493 215H270.812V211H254.493V215ZM197.493 158C197.493 189.48 223.013 215 254.493 215V211C225.222 211 201.493 187.271 201.493 158H197.493ZM197.493 90V158H201.493V90H197.493ZM254.493 33C223.013 33 197.493 58.5198 197.493 90H201.493C201.493 60.7289 225.222 37 254.493 37V33Z" fill="#CECAAC" mask="url(#path-1-inside-1)"/>
</svg>
