<svg width="211" height="149" viewBox="0 0 211 149" fill="none" xmlns="http://www.w3.org/2000/svg">
<mask id="path-1-inside-1" fill="white">
<path fill-rule="evenodd" clip-rule="evenodd" d="M60 24H65.0743C84.9566 24 101.074 40.1178 101.074 60V98C101.074 117.882 84.9566 134 65.0743 134H60.0001C40.1178 134 24 117.882 24 98V60C24 40.1178 40.1178 24 60 24ZM0 60C0 26.8629 26.8629 0 60 0H65.0743C85.0565 0 102.757 9.76818 113.662 24.7899C124.567 9.76818 142.268 0 162.25 0H167.324C200.461 0 227.324 26.8629 227.324 60V98C227.324 131.137 200.461 158 167.324 158H162.25C142.268 158 124.567 148.232 113.662 133.21C102.757 148.232 85.0566 158 65.0743 158H60.0001C26.863 158 0 131.137 0 98V60ZM162.25 24H167.324C187.206 24 203.324 40.1178 203.324 60V98C203.324 117.882 187.206 134 167.324 134H162.25C142.368 134 126.25 117.882 126.25 98V60C126.25 40.1178 142.368 24 162.25 24Z"/>
</mask>
<path d="M113.662 24.7899L112.044 25.9648L113.662 28.1944L115.281 25.9648L113.662 24.7899ZM113.662 133.21L115.281 132.035L113.662 129.806L112.044 132.035L113.662 133.21ZM65.0743 22H60V26H65.0743V22ZM103.074 60C103.074 39.0132 86.0611 22 65.0743 22V26C83.852 26 99.0743 41.2224 99.0743 60H103.074ZM103.074 98V60H99.0743V98H103.074ZM65.0743 136C86.0612 136 103.074 118.987 103.074 98H99.0743C99.0743 116.778 83.852 132 65.0743 132V136ZM60.0001 136H65.0743V132H60.0001V136ZM22 98C22 118.987 39.0132 136 60.0001 136V132C41.2223 132 26 116.778 26 98H22ZM22 60V98H26V60H22ZM60 22C39.0132 22 22 39.0132 22 60H26C26 41.2223 41.2223 26 60 26V22ZM60 -2C25.7583 -2 -2 25.7584 -2 60H2C2 27.9675 27.9675 2 60 2V-2ZM65.0743 -2H60V2H65.0743V-2ZM115.281 23.615C104.016 8.09724 85.7241 -2 65.0743 -2V2C84.389 2 101.499 11.4391 112.044 25.9648L115.281 23.615ZM162.25 -2C141.6 -2 123.308 8.09724 112.044 23.615L115.281 25.9648C125.825 11.4391 142.935 2 162.25 2V-2ZM167.324 -2H162.25V2H167.324V-2ZM229.324 60C229.324 25.7583 201.566 -2 167.324 -2V2C199.357 2 225.324 27.9675 225.324 60H229.324ZM229.324 98V60H225.324V98H229.324ZM167.324 160C201.566 160 229.324 132.242 229.324 98H225.324C225.324 130.033 199.357 156 167.324 156V160ZM162.25 160H167.324V156H162.25V160ZM112.044 134.385C123.308 149.903 141.6 160 162.25 160V156C142.935 156 125.825 146.561 115.281 132.035L112.044 134.385ZM65.0743 160C85.7242 160 104.016 149.903 115.281 134.385L112.044 132.035C101.499 146.561 84.389 156 65.0743 156V160ZM60.0001 160H65.0743V156H60.0001V160ZM-2 98C-2 132.242 25.7584 160 60.0001 160V156C27.9675 156 2 130.033 2 98H-2ZM-2 60V98H2V60H-2ZM167.324 22H162.25V26H167.324V22ZM205.324 60C205.324 39.0132 188.311 22 167.324 22V26C186.102 26 201.324 41.2224 201.324 60H205.324ZM205.324 98V60H201.324V98H205.324ZM167.324 136C188.311 136 205.324 118.987 205.324 98H201.324C201.324 116.778 186.102 132 167.324 132V136ZM162.25 136H167.324V132H162.25V136ZM124.25 98C124.25 118.987 141.263 136 162.25 136V132C143.472 132 128.25 116.778 128.25 98H124.25ZM124.25 60V98H128.25V60H124.25ZM162.25 22C141.263 22 124.25 39.0132 124.25 60H128.25C128.25 41.2223 143.472 26 162.25 26V22Z" fill="#0F3A22" mask="url(#path-1-inside-1)"/>
</svg>
