<svg width="361" height="248" viewBox="0 0 361 248" fill="none" xmlns="http://www.w3.org/2000/svg">
<mask id="path-1-inside-1" fill="white">
<path fill-rule="evenodd" clip-rule="evenodd" d="M90 35H106.319C136.695 35 161.319 59.6243 161.319 90V158C161.319 188.376 136.695 213 106.319 213H89.9999C59.6243 213 35 188.376 35 158V90C35 59.6243 59.6243 35 90 35ZM0 90C0 40.2944 40.2944 0 90 0H106.319C143.292 0 175.058 22.2948 188.906 54.174C202.754 22.2948 234.52 0 271.493 0H287.813C337.518 0 377.812 40.2944 377.812 90V158C377.812 207.706 337.518 248 287.812 248H271.493C234.52 248 202.754 225.705 188.906 193.826C175.058 225.705 143.292 248 106.319 248H89.9999C40.2943 248 0 207.706 0 158V90ZM271.493 35H287.813C318.188 35 342.812 59.6243 342.812 90V158C342.812 188.376 318.188 213 287.812 213H271.493C241.118 213 216.493 188.376 216.493 158V90C216.493 59.6243 241.118 35 271.493 35Z"/>
</mask>
<path d="M188.906 54.174L187.072 54.9709L188.906 59.1938L190.741 54.9709L188.906 54.174ZM188.906 193.826L190.741 193.029L188.906 188.806L187.072 193.029L188.906 193.826ZM106.319 33H90V37H106.319V33ZM163.319 90C163.319 58.5197 137.799 33 106.319 33V37C135.59 37 159.319 60.7289 159.319 90H163.319ZM163.319 158V90H159.319V158H163.319ZM106.319 215C137.799 215 163.319 189.48 163.319 158H159.319C159.319 187.271 135.59 211 106.319 211V215ZM89.9999 215H106.319V211H89.9999V215ZM33 158C33 189.48 58.5197 215 89.9999 215V211C60.7289 211 37 187.271 37 158H33ZM33 90V158H37V90H33ZM90 33C58.5198 33 33 58.5198 33 90H37C37 60.7289 60.7289 37 90 37V33ZM90 -2C39.1898 -2 -2 39.1898 -2 90H2C2 41.3989 41.3989 2 90 2V-2ZM106.319 -2H90V2H106.319V-2ZM190.741 53.3772C176.587 20.7937 144.117 -2 106.319 -2V2C142.468 2 173.53 23.796 187.072 54.9709L190.741 53.3772ZM271.493 -2C233.695 -2 201.226 20.7937 187.072 53.3772L190.741 54.9709C204.283 23.796 235.345 2 271.493 2V-2ZM287.813 -2H271.493V2H287.813V-2ZM379.812 90C379.812 39.1898 338.623 -2 287.813 -2V2C336.414 2 375.812 41.3989 375.812 90H379.812ZM379.812 158V90H375.812V158H379.812ZM287.812 250C338.623 250 379.812 208.81 379.812 158H375.812C375.812 206.601 336.414 246 287.812 246V250ZM271.493 250H287.812V246H271.493V250ZM187.072 194.623C201.226 227.206 233.695 250 271.493 250V246C235.345 246 204.283 224.204 190.741 193.029L187.072 194.623ZM106.319 250C144.117 250 176.587 227.206 190.741 194.623L187.072 193.029C173.53 224.204 142.468 246 106.319 246V250ZM89.9999 250H106.319V246H89.9999V250ZM-2 158C-2 208.81 39.1898 250 89.9999 250V246C41.3989 246 2 206.601 2 158H-2ZM-2 90V158H2V90H-2ZM287.813 33H271.493V37H287.813V33ZM344.812 90C344.812 58.5197 319.293 33 287.813 33V37C317.084 37 340.812 60.7289 340.812 90H344.812ZM344.812 158V90H340.812V158H344.812ZM287.812 215C319.293 215 344.812 189.48 344.812 158H340.812C340.812 187.271 317.084 211 287.812 211V215ZM271.493 215H287.812V211H271.493V215ZM214.493 158C214.493 189.48 240.013 215 271.493 215V211C242.222 211 218.493 187.271 218.493 158H214.493ZM214.493 90V158H218.493V90H214.493ZM271.493 33C240.013 33 214.493 58.5198 214.493 90H218.493C218.493 60.7289 242.222 37 271.493 37V33Z" fill="#CECAAC" mask="url(#path-1-inside-1)"/>
</svg>
